<?xml version="1.0" standalone="no"?>
<!DOCTYPE svg PUBLIC "-//W3C//DTD SVG 20010904//EN"
 "http://www.w3.org/TR/2001/REC-SVG-20010904/DTD/svg10.dtd">
<svg version="1.0" xmlns="http://www.w3.org/2000/svg"
 width="300.000000pt" height="204.000000pt" viewBox="0 0 300.000000 204.000000"
 preserveAspectRatio="xMidYMid meet">
<metadata>
Created by potrace 1.10, written by Peter Selinger 2001-2011
</metadata>
<g transform="translate(0.000000,204.000000) scale(0.100000,-0.100000)"
fill="#FFFFFF" stroke="none">
<path d="M1105 1350 l-320 -320 315 -318 c173 -176 320 -320 325 -320 6 -1 35
23 65 53 l55 56 -223 221 c-122 122 -222 223 -222 225 0 2 275 3 610 3 l610 0
0 80 0 80 -612 0 -613 0 225 225 225 225 -55 55 c-30 30 -57 55 -60 55 -3 0
-149 -144 -325 -320z m357 243 c10 -9 18 -23 18 -32 0 -8 -90 -106 -200 -216
-110 -111 -200 -208 -200 -217 0 -9 7 -24 16 -32 8 -9 16 -17 17 -18 1 -2 263
-5 582 -8 l580 -5 3 -34 c2 -20 -2 -37 -10 -42 -7 -5 -266 -9 -576 -8 -498 0
-566 -2 -588 -16 -13 -8 -24 -23 -24 -32 0 -9 90 -107 200 -218 110 -110 200
-207 200 -215 0 -19 -30 -50 -49 -50 -20 0 -581 560 -581 580 0 19 560 580
579 580 8 0 23 -7 33 -17z"/>
</g>
</svg>
