<svg version="1.1" id="Layer_1" xmlns="http://www.w3.org/2000/svg" xmlns:xlink="http://www.w3.org/1999/xlink" x="0px" y="0px"
	 width="100%" viewBox="0 0 336 224" enable-background="new 0 0 336 224" xml:space="preserve">
<path fill="#000000" opacity="1.000000" stroke="none" 
	d="
M97.050392,108.050812 
	C117.927780,87.191742 138.618500,66.645187 159.117523,45.909122 
	C162.296814,42.693073 164.519867,42.111271 167.534836,45.797977 
	C169.528320,48.235622 171.878616,50.413307 174.250854,52.500904 
	C176.887405,54.821114 176.695648,56.648071 174.225311,59.085796 
	C160.001587,73.121788 145.900040,87.281593 131.758316,101.400650 
	C130.718765,102.438530 129.439957,103.306534 129.101486,104.958748 
	C130.773758,106.734978 132.890564,106.010910 134.762695,106.013046 
	C175.587128,106.059540 216.411621,106.051971 257.236115,106.052574 
	C265.279083,106.052696 265.326935,106.048820 265.270996,114.054886 
	C265.180939,126.943199 266.948212,126.143906 253.191895,126.145828 
	C213.700424,126.151352 174.208954,126.148079 134.717529,126.189529 
	C132.961060,126.191376 131.086365,125.645729 129.383148,126.771858 
	C129.372971,128.798050 131.094238,129.568909 132.190903,130.672012 
	C145.818222,144.379349 159.493912,158.038651 173.165695,171.701752 
	C177.622116,176.155334 177.633270,176.143890 173.037720,180.737946 
	C170.916580,182.858383 168.705139,184.897446 166.699051,187.121674 
	C164.341278,189.735840 162.387680,189.379929 160.025497,187.008835 
	C137.563828,164.462326 115.063683,141.953903 92.498352,119.511177 
	C89.911728,116.938614 89.688591,114.892555 92.523003,112.502571 
	C94.046577,111.217888 95.381035,109.708916 97.050392,108.050812 
z"/>
</svg>